# AST/ASF file generated using VICON BodyLanguage
# -----------------------------------------------
:version 1.10
:name VICON
:units
  mass 1.0
  length 0.45
  angle deg
:documentation
   .ast/.asf automatically generated from VICON data using
   VICON BodyBuilder and BodyLanguage model FoxedUp or BRILLIANT.MOD
:root
   order TX TY TZ RX RY RZ
   axis XYZ
   position 0 0 0  
   orientation 0 0 0 
:bonedata
  begin
     id 1 
     name lhipjoint
     direction 0.710087 -0.641647 0.289942 
     length 2.79038 
     axis 0 0 0  XYZ
  end
  begin
     id 2 
     name lfemur
     direction 0.34202 -0.939693 0  
     length 7.2706  
     axis 0 0 20  XYZ
    dof rx ry rz
    limits (-160.0 20.0)
           (-70.0 70.0)
           (-60.0 70.0)
  end
  begin
     id 3 
     name ltibia
     direction 0.34202 -0.939693 0   
     length 7.86328   
     axis 0 0 20   XYZ
    dof rx
    limits (-10.0 170.0)
  end
  begin
     id 4 
     name lfoot
     direction 0.0541246 -0.148706 0.987399   
     length 2.37542   
     axis -90 7.62852e-016 20   XYZ
    dof rx rz
    limits (-45.0 90.0)
           (-70.0 20.0)
  end
  begin
     id 5 
     name ltoes
     direction 1.53554e-011 -4.21866e-011 1   
     length 1.19593   
     axis -90 7.62852e-016 20   XYZ
    dof rx
    limits (-90.0 20.0)
  end
  begin
     id 6 
     name rhipjoint
     direction -0.675762 -0.671724 0.303533   
     length 2.66544  
     axis 0 0 0  XYZ 
  end
  begin
     id 7 
     name rfemur
     direction -0.34202 -0.939693 0   
     length 8.11844   
     axis 0 0 -20   XYZ
    dof rx ry rz
    limits (-160.0 20.0)
           (-70.0 70.0)
           (-70.0 60.0)
  end
  begin
     id 8 
     name rtibia
     direction -0.34202 -0.939693 0   
     length 7.97082   
     axis 0 0 -20   XYZ
    dof rx
    limits (-10.0 170.0)
 end
 begin
     id 9 
     name rfoot
     direction -0.0726228 -0.199474 0.977208   
     length 2.19677  
     axis -90 -7.62852e-016 -20   XYZ
    dof rx rz
    limits (-45.0 90.0)
           (-20.0 70.0)
  end
  begin
     id 10 
     name rtoes
     direction -1.53508e-011 -4.21913e-011 1   
     length 1.10438   
     axis -90 -7.62852e-016 -20   XYZ
    dof rx
    limits (-90.0 20.0)
  end
  begin
     id 11 
     name lowerback
     direction -0.00404436 0.999673 -0.0252643   
     length 2.03972   
     axis 0 0 0   XYZ
    dof rx ry rz
    limits (-20.0 45.0)
           (-30.0 30.0)
           (-30.0 30.0)
  end
  begin
     id 12 
     name upperback
     direction 0.00744643 0.999969 0.00242763   
     length 2.04273   
     axis 0 0 0   XYZ
    dof rx ry rz
    limits (-20.0 45.0)
           (-30.0 30.0)
           (-30.0 30.0)
  end
  begin
     id 13 
     name thorax
     direction 0.00846113 0.999862 0.0143204   
     length 2.03752   
     axis 0 0 0   XYZ
    dof rx ry rz
    limits (-20.0 45.0)
           (-30.0 30.0)
           (-30.0 30.0)
  end
  begin
     id 14 
     name lowerneck
     direction 0.0328213 0.990857 0.130862   
     length 1.37497   
     axis 0 0 0   XYZ
    dof rx ry rz
    limits (-20.0 45.0)
           (-30.0 30.0)
           (-30.0 30.0)
  end
  begin
     id 15 
     name upperneck
     direction -0.0302832 0.999496 0.00956452   
     length 1.35926   
     axis 0 0 0   XYZ
    dof rx ry rz
    limits (-20.0 45.0)
           (-30.0 30.0)
           (-30.0 30.0)
  end
  begin
     id 16
     name head
     direction -0.0130455 0.999856 -0.0108809  
     length 1.44454  
     axis 0 0 0   XYZ
    dof rx ry rz
    limits (-20.0 45.0)
           (-30.0 30.0)
           (-30.0 30.0)
  end
  begin
     id 17 
     name lclavicle
     direction 0.952957 0.278766 0.119006  
     length 3.10112  
     axis 0 0 0   XYZ
    dof ry rz
    limits (-20.0 10.0)
           (0.0 20.0)
  end
  begin
     id 18 
     name lhumerus
     direction 1 -4.48972e-011 -1.63238e-028   
     length 5.82845   
     axis -180 -30 -90   XYZ
    dof rx ry rz
    limits (-60.0 90.0)
           (-90.0 90.0)
           (-90.0 90.0)
  end
  begin
     id 19
     name lradius
     direction 1 -4.48959e-011 1.45401e-026   
     length 3.49691   
     axis -180 -30 -90   XYZ
    dof rx
    limits (-10.0 170.0)
  end
  begin
     id 20
     name lwrist
     direction 1 -4.48945e-011 2.98015e-026   
     length 1.74845   
     axis -1.7599e-014 90 90   XYZ
    dof ry
    limits (-180.0 0.0)
 end
  begin
     id 21 
     name lhand
     direction 1 -4.4902e-011 5.9603e-026   
     length 0.674998   
     axis -3.80318e-014 90 90   XYZ
    dof rx rz
    limits (-90.0 90.0)
           (-45.0 45.0)
  end
  begin
     id 22 
     name lfingers
     direction 1 -4.48979e-011 1.19206e-025   
     length 0.544201   
     axis -7.60636e-014 90 90   XYZ
    dof rx
    limits (0.0 90.0)
  end
  begin
     id 23
     name lthumb
     direction 0.707107 -6.34941e-011 0.707107   
     length 0.781367   
     axis -90 45 2.85299e-015   XYZ
    dof rx rz
    limits (-45.0 45.0)
           (-45.0 45.0)
  end
  begin
     id 24 
     name rclavicle
     direction -0.967632 0.241887 0.0719654   
     length 3.53012  
     axis 0 0 0   XYZ 
    dof ry rz
    limits (-10.0 20.0)
           (-20.0 0.0)
  end
  begin
     id 25 
     name rhumerus
     direction -1 -4.4897e-011 6.87619e-028  
     length 5.45859   
     axis -180 30 90   XYZ
    dof rx ry rz
    limits (-90.0 60.0)
           (-90.0 90.0)
           (-90.0 90.0)
  end
  begin
     id 26 
     name rradius
     direction -1 -4.48967e-011 1.68055e-026   
     length 3.58491   
     axis -180 30 90   XYZ
    dof rx
    limits (-10.0 170.0)
  end
  begin
     id 27 
     name rwrist
     direction -1 -4.48976e-011 2.98015e-026   
     length 1.79245   
     axis -1.7599e-014 -90 -90   XYZ
    dof ry
    limits (-180.0 0.0)
  end
  begin
     id 28
     name rhand
     direction -1 -4.48996e-011 5.9603e-026   
     length 0.683735   
     axis -3.80318e-014 -90 -90   XYZ
    dof rx rz
    limits (-90.0 90.0)
           (-45.0 45.0)
  end
  begin
     id 29
     name rfingers
     direction -1 -4.48924e-011 1.19206e-025   
     length 0.551245   
     axis -7.60636e-014 -90 -90   XYZ
    dof rx
    limits (0.0 90.0)
  end
  begin
     id 30
     name rthumb
     direction -0.707107 -6.3492e-011 0.707107   
     length 0.791481   
     axis -90 -45 -2.85299e-015   XYZ
    dof rx rz
    limits (-45.0 45.0)
           (-45.0 45.0)
  end
:hierarchy
  begin
    root lhipjoint rhipjoint lowerback
    lhipjoint lfemur
    lfemur ltibia
    ltibia lfoot
    lfoot ltoes
    rhipjoint rfemur
    rfemur rtibia
    rtibia rfoot
    rfoot rtoes
    lowerback upperback
    upperback thorax
    thorax lowerneck lclavicle rclavicle
    lowerneck upperneck
    upperneck head
    lclavicle lhumerus
    lhumerus lradius
    lradius lwrist
    lwrist lhand lthumb
    lhand lfingers
    rclavicle rhumerus
    rhumerus rradius
    rradius rwrist
    rwrist rhand rthumb
    rhand rfingers
  end

#!OML:ASF F:\VICON\USERDATA\INSTALL\rory3\rory3.ASF
:FULLY-SPECIFIED
:DEGREES
2282
root 1.80378 18.1034 -32.4122 -171.857 -168.662 177.079
lowerback 2.45198 1.40112 0.49465
upperback -1.77293 1.90188 0.422848
thorax -3.19392 0.941783 0.0588853
lowerneck -10.4108 3.80913 4.91981
upperneck 2.74888 4.52167 -1.57691
head 2.87915 2.25085 -1.11584
rclavicle 4.96962e-017 2.78299e-015
rhumerus 22.948 11.3482 -80.3805
rradius 66.7112
rwrist 9.16135
rhand -26.1082 70.5284
rfingers 7.12502
rthumb 0.441226 -319.451
lclavicle 4.96962e-017 2.78299e-015
lhumerus 18.7749 -13.769 84.2485
lradius 71.6498
lwrist 91.8849
lhand -2.75978 259.691
lfingers 7.12502
lthumb -157.056 -308.963
rfemur -27.7314 2.01298 18.2834
rtibia 48.9214
rfoot -25.3026 -4.06459
rtoes 1.98158
lfemur -17.8298 5.7114 -23.6791
ltibia 26.9111
lfoot -12.9688 8.87903
ltoes -1.76709
2283
root 1.81804 18.089 -32.4616 -171.215 -167.993 177.131
lowerback 2.70934 1.4508 0.564055
upperback -1.60099 1.96947 0.341274
thorax -3.15636 0.973221 -0.0715522
lowerneck -10.8352 3.99457 5.15199
upperneck 2.42176 4.71193 -1.56205
head 2.86085 2.3434 -1.13551
rclavicle -1.81888e-014 1.59028e-014
rhumerus 23.4762 12.056 -80.4656
rradius 66.1388
rwrist 8.77449
rhand -26.4579 72.6466
rfingers 7.12502
rthumb 0.103487 -317.333
lclavicle -1.81888e-014 1.59028e-014
lhumerus 18.8769 -13.3073 84.9437
lradius 70.8483
lwrist 95.0448
lhand -9.8963 262.89
lfingers 7.12502
lthumb -163.916 -306.462
rfemur -28.9839 1.97948 18.1608
rtibia 49.2742
rfoot -24.8363 -3.99902
rtoes 0.263177
lfemur -19.252 6.90418 -23.9708
ltibia 27.8727
lfoot -13.0034 8.1721
ltoes -0.522759
2284
root 1.83146 18.0734 -32.5056 -170.583 -167.254 177.085
lowerback 2.97886 1.50691 0.624678
upperback -1.42971 2.047 0.307401
thorax -3.12798 1.01043 -0.149321
lowerneck -11.1723 4.17574 5.60549
upperneck 1.86685 4.8826 -1.80175
head 2.76441 2.41641 -1.28157
rclavicle 2.5022e-014 2.34566e-014
rhumerus 23.1565 12.655 -81.1051
rradius 66.3767
rwrist 9.92079
rhand -26.7906 73.08
rfingers 7.12502
rthumb -0.217827 -316.9
lclavicle 2.5022e-014 2.34566e-014
lhumerus 18.742 -12.8462 85.6586
lradius 70.3495
lwrist 98.6339
lhand -19.2845 265.223
lfingers 7.12502
lthumb -172.969 -304.64
rfemur -30.1684 1.91007 18.0869
rtibia 49.6747
rfoot -24.5665 -3.31732
rtoes 1.21502
lfemur -20.7229 8.01357 -24.1691
ltibia 29.0135
lfoot -13.193 7.59715
ltoes 0.37052
2285
root 1.84367 18.0419 -32.5424 -170.03 -166.557 177.111
lowerback 3.34802 1.54861 0.544293
upperback -1.35563 2.10104 0.285276
thorax -3.2614 1.03816 -0.140007
lowerneck -11.5162 4.30902 6.05304
upperneck 1.63598 4.98563 -2.01359
head 2.77783 2.45954 -1.42031
rclavicle -1.38404e-014 -8.15017e-015
rhumerus 22.7121 13.3382 -81.411
rradius 66.99
rwrist 10.8537
rhand -26.3262 72.662
rfingers 7.12502
rthumb 0.230673 -317.318
lclavicle -1.38404e-014 -8.15017e-015
lhumerus 18.0677 -12.4334 86.3934
lradius 70.3597
lwrist 102.444
lhand -27.8707 436.741
lfingers 7.12502
lthumb -181.261 -286.717
rfemur -31.2818 1.36778 18.0822
rtibia 50.0474
rfoot -24.0488 -3.0531
rtoes -1.77539
lfemur -22.2206 9.11015 -24.4658
ltibia 30.3752
lfoot -13.4768 7.03557
ltoes 1.0064
2286
root 1.85201 18.0031 -32.572 -169.534 -165.766 176.928
lowerback 3.79549 1.60969 0.530409
upperback -1.30527 2.18668 0.334119
thorax -3.46378 1.0806 -0.100455
lowerneck -11.7751 4.51776 6.38464
upperneck 1.41055 5.20053 -2.07964
head 2.77309 2.56231 -1.484
rclavicle 1.14301e-015 -1.8487e-014
rhumerus 21.7072 14.1103 -81.6503
rradius 68.3998
rwrist 11.8696
rhand -25.827 72.5792
rfingers 7.12502
rthumb 0.712837 -317.399
lclavicle 1.14301e-015 -1.8487e-014
lhumerus 16.7827 -12.1523 87.0501
lradius 71.0507
lwrist 106.262
lhand -34.8506 423.085
lfingers 7.12502
lthumb -188.001 -272.914
rfemur -32.1244 1.02506 18.2739
rtibia 50.316
rfoot -23.8046 -2.09168
rtoes -0.357547
lfemur -23.7049 10.1561 -24.544
ltibia 31.9259
lfoot -13.8663 6.65977
ltoes 0.534788
2287
root 1.85847 17.9576 -32.5975 -168.972 -164.91 176.413
lowerback 4.07078 1.64588 0.766581
upperback -1.23095 2.25694 0.557477
thorax -3.54206 1.11241 -0.0150309
lowerneck -11.6578 4.74905 6.39536
upperneck 0.882239 5.50892 -1.99862
head 2.5807 2.71168 -1.44315
rclavicle -2.98177e-016 -1.43125e-014
rhumerus 20.0492 15.3558 -81.7493
rradius 70.7255
rwrist 12.8284
rhand -25.8152 73.321
rfingers 7.12502
rthumb 0.724229 -316.658
lclavicle -2.98177e-016 -1.43125e-014
lhumerus 15.0191 -11.9392 87.6601
lradius 72.4271
lwrist 110.087
lhand -38.0371 415.576
lfingers 7.12502
lthumb -191.075 -94.7364
rfemur -32.9291 0.868316 18.8227
rtibia 50.4978
rfoot -23.5533 -1.45415
rtoes -0.192415
lfemur -25.1989 11.1138 -24.2551
ltibia 33.5576
lfoot -14.5076 6.52526
ltoes -0.20699
2288
root 1.86243 17.9196 -32.614 -168.418 -164.145 175.778
lowerback 4.18252 1.7088 1.16195
upperback -1.04303 2.36745 0.744195
thorax -3.40257 1.16191 -0.0518013
lowerneck -11.664 4.84112 6.40077
upperneck 0.360515 5.62221 -1.85643
head 2.40301 2.76508 -1.39308
rclavicle -5.54112e-015 -1.11319e-014
rhumerus 18.1141 16.6387 -81.7658
rradius 73.4646
rwrist 13.2016
rhand -25.2915 70.5936
rfingers 7.12502
rthumb 1.23006 -319.383
lclavicle -5.54112e-015 -1.11319e-014
lhumerus 13.3534 -12.2065 88.0859
lradius 74.1632
lwrist 113.57
lhand -38.9718 413.136
lfingers 7.12502
lthumb -191.976 -97.2261
rfemur -33.7403 0.730936 19.4985
rtibia 50.6558
rfoot -23.1943 -1.32144
rtoes -3.43348
lfemur -26.4997 12.1108 -23.8641
ltibia 35.0703
lfoot -15.0817 6.61477
ltoes -0.933894
